<?xml version="1.0" encoding="utf-8"?>
<!-- Generator: Adobe Illustrator 19.1.0, SVG Export Plug-In . SVG Version: 6.00 Build 0)  -->
<svg version="1.1" id="Layer_3" xmlns="http://www.w3.org/2000/svg" xmlns:xlink="http://www.w3.org/1999/xlink" x="0px" y="0px"
	 viewBox="0 0 800 800" style="enable-background:new 0 0 800 800;" xml:space="preserve">
<style type="text/css">
	.st0{fill:#f2f2f2;}
</style>
<g>
	<g>
		<path class="st0" d="M502.2,58.4l-5.5,1.1c-26.2,5.1-46.8,25.6-51.8,51.8l-1.1,5.5l-1.1-5.7C437.6,85,417.2,64.5,391,59.5
			l-5.7-1.1l5.6-1.1c26.2-5.1,46.6-25.5,51.7-51.7l1.1-5.6l1.1,5.6c5.1,26.2,25.5,46.6,51.7,51.7L502.2,58.4z"/>
		<path class="st0" d="M498.7,227.4l-6.8,1.3c-32.3,6.2-57.5,31.5-63.8,63.7l-1.3,6.8l-1.3-7c-6.2-32.2-31.4-57.3-63.6-63.5l-7-1.3
			l6.9-1.3c32.2-6.2,57.4-31.4,63.6-63.6l1.3-6.9l1.3,6.9c6.2,32.2,31.4,57.4,63.6,63.6L498.7,227.4z"/>
		<path class="st0" d="M356.7,116.8l-3.1,0.6c-14.9,2.9-26.5,14.5-29.4,29.4l-0.6,3.1l-0.6-3.2c-2.9-14.8-14.5-26.4-29.3-29.3
			l-3.2-0.6l3.2-0.6c14.8-2.9,26.4-14.5,29.3-29.3l0.6-3.2l0.6,3.2c2.9,14.8,14.5,26.4,29.3,29.3L356.7,116.8z"/>
		<polygon class="st0" points="616,770.9 573.4,800 271.5,359.5 314.1,330.3 		"/>
		<polygon class="st0" points="290.5,296.6 247.9,325.8 184,232.5 226.6,203.4 		"/>
	</g>
</g>
</svg>
